<svg width="1112" height="95" viewBox="0 0 1112 95" fill="none" xmlns="http://www.w3.org/2000/svg">
<path d="M0.29 47.24C0.29 38.2267 2.24 30.21 6.14 23.19C10.04 16.0833 15.4567 10.58 22.39 6.68C29.41 2.69333 37.34 0.699995 46.18 0.699995C57.0133 0.699995 66.2867 3.55999 74 9.27999C81.7133 15 86.87 22.8 89.47 32.68H65.03C63.21 28.8667 60.61 25.9633 57.23 23.97C53.9367 21.9767 50.1667 20.98 45.92 20.98C39.0733 20.98 33.5267 23.3633 29.28 28.13C25.0333 32.8967 22.91 39.2667 22.91 47.24C22.91 55.2133 25.0333 61.5833 29.28 66.35C33.5267 71.1167 39.0733 73.5 45.92 73.5C50.1667 73.5 53.9367 72.5033 57.23 70.51C60.61 68.5167 63.21 65.6133 65.03 61.8H89.47C86.87 71.68 81.7133 79.48 74 85.2C66.2867 90.8333 57.0133 93.65 46.18 93.65C37.34 93.65 29.41 91.7 22.39 87.8C15.4567 83.8133 10.04 78.31 6.14 71.29C2.24 64.27 0.29 56.2533 0.29 47.24ZM172.633 31.12C172.633 36.4067 171.42 41.26 168.993 45.68C166.567 50.0133 162.84 53.5233 157.813 56.21C152.787 58.8967 146.547 60.24 139.093 60.24H125.313V93H103.083V1.74H139.093C146.373 1.74 152.527 2.99666 157.553 5.51C162.58 8.02333 166.35 11.49 168.863 15.91C171.377 20.33 172.633 25.4 172.633 31.12ZM137.403 42.56C141.65 42.56 144.813 41.5633 146.893 39.57C148.973 37.5767 150.013 34.76 150.013 31.12C150.013 27.48 148.973 24.6633 146.893 22.67C144.813 20.6767 141.65 19.68 137.403 19.68H125.313V42.56H137.403ZM253.756 31.12C253.756 36.4067 252.543 41.26 250.116 45.68C247.69 50.0133 243.963 53.5233 238.936 56.21C233.91 58.8967 227.67 60.24 220.216 60.24H206.436V93H184.206V1.74H220.216C227.496 1.74 233.65 2.99666 238.676 5.51C243.703 8.02333 247.473 11.49 249.986 15.91C252.5 20.33 253.756 25.4 253.756 31.12ZM218.526 42.56C222.773 42.56 225.936 41.5633 228.016 39.57C230.096 37.5767 231.136 34.76 231.136 31.12C231.136 27.48 230.096 24.6633 228.016 22.67C225.936 20.6767 222.773 19.68 218.526 19.68H206.436V42.56H218.526ZM315.108 19.55V38.01H344.878V55.17H315.108V75.19H348.778V93H292.878V1.74H348.778V19.55H315.108ZM406.11 93L392.2 72.85L380.5 93H356.45L380.37 55.95L355.8 20.46H380.76L394.67 40.48L406.37 20.46H430.42L406.11 56.99L431.07 93H406.11ZM480.066 74.15V93H468.756C460.696 93 454.413 91.05 449.906 87.15C445.4 83.1633 443.146 76.7067 443.146 67.78V38.92H434.306V20.46H443.146V2.78H465.376V20.46H479.936V38.92H465.376V68.04C465.376 70.2067 465.896 71.7667 466.936 72.72C467.976 73.6733 469.71 74.15 472.136 74.15H480.066ZM514.679 32.55C517.279 28.5633 520.529 25.4433 524.429 23.19C528.329 20.85 532.662 19.68 537.429 19.68V43.21H531.319C525.772 43.21 521.612 44.4233 518.839 46.85C516.065 49.19 514.679 53.35 514.679 59.33V93H492.449V20.46H514.679V32.55ZM616.434 55.56C616.434 57.64 616.304 59.8067 616.044 62.06H565.734C566.081 66.5667 567.511 70.0333 570.024 72.46C572.624 74.8 575.787 75.97 579.514 75.97C585.061 75.97 588.917 73.63 591.084 68.95H614.744C613.531 73.7167 611.321 78.0067 608.114 81.82C604.994 85.6333 601.051 88.6233 596.284 90.79C591.517 92.9567 586.187 94.04 580.294 94.04C573.187 94.04 566.861 92.5233 561.314 89.49C555.767 86.4567 551.434 82.1233 548.314 76.49C545.194 70.8567 543.634 64.27 543.634 56.73C543.634 49.19 545.151 42.6033 548.184 36.97C551.304 31.3367 555.637 27.0033 561.184 23.97C566.731 20.9367 573.101 19.42 580.294 19.42C587.314 19.42 593.554 20.8933 599.014 23.84C604.474 26.7867 608.721 30.99 611.754 36.45C614.874 41.91 616.434 48.28 616.434 55.56ZM593.684 49.71C593.684 45.8967 592.384 42.8633 589.784 40.61C587.184 38.3567 583.934 37.23 580.034 37.23C576.307 37.23 573.144 38.3133 570.544 40.48C568.031 42.6467 566.471 45.7233 565.864 49.71H593.684ZM720.722 19.68C729.735 19.68 736.885 22.41 742.172 27.87C747.545 33.33 750.232 40.9133 750.232 50.62V93H728.132V53.61C728.132 48.93 726.875 45.3333 724.362 42.82C721.935 40.22 718.555 38.92 714.222 38.92C709.888 38.92 706.465 40.22 703.952 42.82C701.525 45.3333 700.312 48.93 700.312 53.61V93H678.212V53.61C678.212 48.93 676.955 45.3333 674.442 42.82C672.015 40.22 668.635 38.92 664.302 38.92C659.968 38.92 656.545 40.22 654.032 42.82C651.605 45.3333 650.392 48.93 650.392 53.61V93H628.162V20.46H650.392V29.56C652.645 26.5267 655.592 24.1433 659.232 22.41C662.872 20.59 666.988 19.68 671.582 19.68C677.042 19.68 681.895 20.85 686.142 23.19C690.475 25.53 693.855 28.8667 696.282 33.2C698.795 29.2133 702.218 25.9633 706.552 23.45C710.885 20.9367 715.608 19.68 720.722 19.68ZM834.159 55.56C834.159 57.64 834.029 59.8067 833.769 62.06H783.459C783.805 66.5667 785.235 70.0333 787.749 72.46C790.349 74.8 793.512 75.97 797.239 75.97C802.785 75.97 806.642 73.63 808.809 68.95H832.469C831.255 73.7167 829.045 78.0067 825.839 81.82C822.719 85.6333 818.775 88.6233 814.009 90.79C809.242 92.9567 803.912 94.04 798.019 94.04C790.912 94.04 784.585 92.5233 779.039 89.49C773.492 86.4567 769.159 82.1233 766.039 76.49C762.919 70.8567 761.359 64.27 761.359 56.73C761.359 49.19 762.875 42.6033 765.909 36.97C769.029 31.3367 773.362 27.0033 778.909 23.97C784.455 20.9367 790.825 19.42 798.019 19.42C805.039 19.42 811.279 20.8933 816.739 23.84C822.199 26.7867 826.445 30.99 829.479 36.45C832.599 41.91 834.159 48.28 834.159 55.56ZM811.409 49.71C811.409 45.8967 810.109 42.8633 807.509 40.61C804.909 38.3567 801.659 37.23 797.759 37.23C794.032 37.23 790.869 38.3133 788.269 40.48C785.755 42.6467 784.195 45.7233 783.589 49.71H811.409ZM928.685 46.2C933.972 47.3267 938.218 49.97 941.425 54.13C944.632 58.2033 946.235 62.8833 946.235 68.17C946.235 75.7967 943.548 81.8633 938.175 86.37C932.888 90.79 925.478 93 915.945 93H873.435V1.74H914.515C923.788 1.74 931.025 3.86333 936.225 8.10999C941.512 12.3567 944.155 18.12 944.155 25.4C944.155 30.7733 942.725 35.2367 939.865 38.79C937.092 42.3433 933.365 44.8133 928.685 46.2ZM895.665 38.66H910.225C913.865 38.66 916.638 37.88 918.545 36.32C920.538 34.6733 921.535 32.29 921.535 29.17C921.535 26.05 920.538 23.6667 918.545 22.02C916.638 20.3733 913.865 19.55 910.225 19.55H895.665V38.66ZM912.045 75.06C915.772 75.06 918.632 74.2367 920.625 72.59C922.705 70.8567 923.745 68.3867 923.745 65.18C923.745 61.9733 922.662 59.46 920.495 57.64C918.415 55.82 915.512 54.91 911.785 54.91H895.665V75.06H912.045ZM992.148 93.91C985.475 93.91 979.495 92.8267 974.208 90.66C968.922 88.4933 964.675 85.2867 961.468 81.04C958.348 76.7933 956.702 71.68 956.528 65.7H980.188C980.535 69.08 981.705 71.68 983.698 73.5C985.692 75.2333 988.292 76.1 991.498 76.1C994.792 76.1 997.392 75.3633 999.298 73.89C1001.21 72.33 1002.16 70.2067 1002.16 67.52C1002.16 65.2667 1001.38 63.4033 999.818 61.93C998.345 60.4567 996.482 59.2433 994.228 58.29C992.062 57.3367 988.942 56.2533 984.868 55.04C978.975 53.22 974.165 51.4 970.438 49.58C966.712 47.76 963.505 45.0733 960.818 41.52C958.132 37.9667 956.788 33.33 956.788 27.61C956.788 19.1167 959.865 12.4867 966.018 7.72C972.172 2.86666 980.188 0.439998 990.068 0.439998C1000.12 0.439998 1008.23 2.86666 1014.38 7.72C1020.53 12.4867 1023.83 19.16 1024.26 27.74H1000.21C1000.04 24.7933 998.952 22.4967 996.958 20.85C994.965 19.1167 992.408 18.25 989.288 18.25C986.602 18.25 984.435 18.9867 982.788 20.46C981.142 21.8467 980.318 23.8833 980.318 26.57C980.318 29.5167 981.705 31.8133 984.478 33.46C987.252 35.1067 991.585 36.8833 997.478 38.79C1003.37 40.7833 1008.14 42.69 1011.78 44.51C1015.51 46.33 1018.71 48.9733 1021.4 52.44C1024.09 55.9067 1025.43 60.37 1025.43 65.83C1025.43 71.03 1024.09 75.7533 1021.4 80C1018.8 84.2467 1014.99 87.6267 1009.96 90.14C1004.93 92.6533 998.995 93.91 992.148 93.91ZM1094.36 46.2C1099.65 47.3267 1103.89 49.97 1107.1 54.13C1110.31 58.2033 1111.91 62.8833 1111.91 68.17C1111.91 75.7967 1109.22 81.8633 1103.85 86.37C1098.56 90.79 1091.15 93 1081.62 93H1039.11V1.74H1080.19C1089.46 1.74 1096.7 3.86333 1101.9 8.10999C1107.19 12.3567 1109.83 18.12 1109.83 25.4C1109.83 30.7733 1108.4 35.2367 1105.54 38.79C1102.77 42.3433 1099.04 44.8133 1094.36 46.2ZM1061.34 38.66H1075.9C1079.54 38.66 1082.31 37.88 1084.22 36.32C1086.21 34.6733 1087.21 32.29 1087.21 29.17C1087.21 26.05 1086.21 23.6667 1084.22 22.02C1082.31 20.3733 1079.54 19.55 1075.9 19.55H1061.34V38.66ZM1077.72 75.06C1081.45 75.06 1084.31 74.2367 1086.3 72.59C1088.38 70.8567 1089.42 68.3867 1089.42 65.18C1089.42 61.9733 1088.34 59.46 1086.17 57.64C1084.09 55.82 1081.19 54.91 1077.46 54.91H1061.34V75.06H1077.72Z" fill="white"/>
</svg>
