<svg width="423" height="93" viewBox="0 0 423 93" fill="none" xmlns="http://www.w3.org/2000/svg">
<path d="M35.448 92.896C28.8773 92.896 22.9893 91.8293 17.784 89.696C12.5787 87.5627 8.39733 84.4053 5.24 80.224C2.168 76.0427 0.546667 71.008 0.376 65.12H23.672C24.0133 68.448 25.1653 71.008 27.128 72.8C29.0907 74.5067 31.6507 75.36 34.808 75.36C38.0507 75.36 40.6107 74.6347 42.488 73.184C44.3653 71.648 45.304 69.5573 45.304 66.912C45.304 64.6933 44.536 62.8587 43 61.408C41.5493 59.9573 39.7147 58.7627 37.496 57.824C35.3627 56.8853 32.2907 55.8187 28.28 54.624C22.4773 52.832 17.7413 51.04 14.072 49.248C10.4027 47.456 7.24533 44.8107 4.6 41.312C1.95467 37.8133 0.632 33.248 0.632 27.616C0.632 19.2533 3.66133 12.7253 9.72 8.032C15.7787 3.25333 23.672 0.863998 33.4 0.863998C43.2987 0.863998 51.2773 3.25333 57.336 8.032C63.3947 12.7253 66.6373 19.296 67.064 27.744H43.384C43.2133 24.8427 42.1467 22.5813 40.184 20.96C38.2213 19.2533 35.704 18.4 32.632 18.4C29.9867 18.4 27.8533 19.1253 26.232 20.576C24.6107 21.9413 23.8 23.9467 23.8 26.592C23.8 29.4933 25.1653 31.7547 27.896 33.376C30.6267 34.9973 34.8933 36.7467 40.696 38.624C46.4987 40.5867 51.192 42.464 54.776 44.256C58.4453 46.048 61.6027 48.6507 64.248 52.064C66.8933 55.4773 68.216 59.872 68.216 65.248C68.216 70.368 66.8933 75.0187 64.248 79.2C61.688 83.3813 57.9333 86.7093 52.984 89.184C48.0347 91.6587 42.1893 92.896 35.448 92.896ZM103.574 19.68V37.856H132.886V54.752H103.574V74.464H136.726V92H81.686V2.144H136.726V19.68H103.574ZM184.6 2.144C194.072 2.144 202.349 4.02133 209.432 7.77599C216.515 11.5307 221.976 16.8213 225.816 23.648C229.741 30.3893 231.704 38.1973 231.704 47.072C231.704 55.8613 229.741 63.6693 225.816 70.496C221.976 77.3227 216.472 82.6133 209.304 86.368C202.221 90.1227 193.987 92 184.6 92H150.936V2.144H184.6ZM183.192 73.056C191.469 73.056 197.912 70.7947 202.52 66.272C207.128 61.7493 209.432 55.3493 209.432 47.072C209.432 38.7947 207.128 32.352 202.52 27.744C197.912 23.136 191.469 20.832 183.192 20.832H172.824V73.056H183.192ZM299.872 76.128H266.336L260.96 92H238.048L270.56 2.144H295.904L328.416 92H305.248L299.872 76.128ZM294.24 59.232L283.104 26.336L272.096 59.232H294.24ZM334.599 46.944C334.599 38.0693 336.519 30.176 340.359 23.264C344.199 16.2667 349.532 10.848 356.359 7.008C363.271 3.08266 371.079 1.12 379.783 1.12C390.45 1.12 399.58 3.93599 407.175 9.56799C414.77 15.2 419.847 22.88 422.407 32.608H398.343C396.551 28.8533 393.991 25.9947 390.663 24.032C387.42 22.0693 383.708 21.088 379.527 21.088C372.786 21.088 367.324 23.4347 363.143 28.128C358.962 32.8213 356.871 39.0933 356.871 46.944C356.871 54.7947 358.962 61.0667 363.143 65.76C367.324 70.4533 372.786 72.8 379.527 72.8C383.708 72.8 387.42 71.8187 390.663 69.856C393.991 67.8933 396.551 65.0347 398.343 61.28H422.407C419.847 71.008 414.77 78.688 407.175 84.32C399.58 89.8667 390.45 92.64 379.783 92.64C371.079 92.64 363.271 90.72 356.359 86.88C349.532 82.9547 344.199 77.536 340.359 70.624C336.519 63.712 334.599 55.8187 334.599 46.944Z" fill="white"/>
</svg>
